<svg version="1.2" xmlns="http://www.w3.org/2000/svg" viewBox="0 0 512 184" width="512" height="184">
	<title>v4_short_L</title>
	<style>
		.s0 { fill: #20b33d } 
	</style>
	<path id="lian" class="s0" d="m31.4 96.3h-31.3v-88.5l31.3-6.8zm88.4 14.7h-31.3v-67.1h31.3zm51.1 24.4q0-15.3 8.1-28.3 8.2-13.2 26.9-21.4 18.8-8.5 50.4-9.5l21.5-0.7v22.1l-20.1 2.1q-22.1 2-34.1 7.1-11.9 5.1-16.3 11.9-4.4 6.5-4.4 14 0 10.5 6.1 16.7 6.5 5.7 17 5.7 14.7 0 28.3-7.4 13.9-7.5 25.9-20.8v24.5q-9.9 13.6-25.9 23.2-16 9.1-35.1 9.1-12.6 0-23.8-5.7-10.9-5.8-17.7-16.7-6.8-10.9-6.8-25.9zm16-89.2l-10.9-26.6q11.9-7.4 29.3-12.5 17.3-5.5 33-5.5 19.4 0 34.7 7.5 15.3 7.5 24.2 22.8 9.2 15 9.2 37.8v69.1q0 7.2 0.3 13.3 0.7 5.8 2.1 13.3l2.7 14.9h-29.3l-7.2-34v-72.9q0-22.4-10.5-32-10.6-9.8-29.3-9.8-13.6 0-25.2 4-11.6 4.1-23.1 10.6zm176.7-26.2l-2.8-15h29.3l7.2 34.1v141.2h-31.4v-133.8q0-7.1-0.6-12.9-0.4-6.1-1.7-13.6zm28.6 38.5v-24.6q11.2-14.3 26.5-23.1 15.3-9.2 32.4-9.2 17.3 0 30.9 7.8 14 7.9 21.8 23.5 8.2 15.7 8.2 39.9v107.5h-31.3v-103.5q0-16-5.1-25.8-4.8-10.2-13.3-15-8.5-4.8-19.4-4.8-13.6 0-26.6 7.2-12.9 7.1-24.1 20.1zm-272.4 67.8v24.5q-11.2 14.3-26.5 23.1-15.3 9.2-32.4 9.2-17.3 0-30.9-7.8-14-7.9-21.8-23.5-8.2-15.7-8.2-39.8v-16.7h31.3v12.6q0 16 5.1 25.8 4.8 10.3 13.3 15 8.5 4.8 19.4 4.8 13.6 0 26.6-7.2 12.9-7.1 24.1-20zm-15.3-94.8c-8.6 0-15.5-6.9-15.5-15.5 0-8.6 6.9-15.5 15.5-15.5 8.6 0 15.5 6.9 15.5 15.5 0 8.6-6.9 15.5-15.5 15.5z"/>
</svg>