<svg version="1.2" xmlns="http://www.w3.org/2000/svg" viewBox="0 0 200 200" width="200" height="200">
	<title>v4_short_L</title>
	<style>
		.s0 { fill: #20b33d } 
	</style>
	<path id="lian" class="s0" d="m71.4 104.3h-31.3v-88.5l31.3-6.8zm88.4 14.7h-31.3v-67.1h31.3zm0 15.3v24.5q-11.2 14.3-26.5 23.1-15.3 9.2-32.4 9.2-17.3 0-30.9-7.8-14-7.9-21.8-23.5-8.2-15.7-8.2-39.8v-16.7h31.3v12.6q0 16 5.1 25.8 4.8 10.3 13.3 15 8.5 4.8 19.4 4.8 13.6 0 26.6-7.2 12.9-7.1 24.1-20zm-15.3-94.8c-8.6 0-15.5-6.9-15.5-15.5 0-8.6 6.9-15.5 15.5-15.5 8.6 0 15.5 6.9 15.5 15.5 0 8.6-6.9 15.5-15.5 15.5z"/>
</svg>