<svg version="1.2" xmlns="http://www.w3.org/2000/svg" viewBox="0 0 512 512" width="512" height="512">
	<title>v4</title>
	<style>
		.s0 { fill: #20b33d } 
	</style>
	<path id="lian" class="s0" d="m48.1 305h-29v-159.7l29-6.3zm81.8 0h-29v-165.2h29zm47.3-41.6q0-14.2 7.6-26.1 7.5-12.3 24.9-19.9 17.3-7.9 46.6-8.8l19.9-0.7v20.5l-18.6 1.9q-20.5 1.9-31.5 6.6-11.1 4.8-15.2 11.1-4.1 6-4.1 12.9 0 9.8 5.7 15.4 6 5.4 15.8 5.4 13.5 0 26.1-6.9 12.9-7 24-19.3v22.7q-9.2 12.6-24 21.5-14.8 8.5-32.4 8.5-11.7 0-22.1-5.4-10.1-5.3-16.4-15.4-6.3-10.1-6.3-24zm14.8-82.6l-10.1-24.5q11.1-7 27.1-11.7 16.1-5.1 30.6-5.1 18 0 32.2 7 14.1 6.9 22.3 21.1 8.5 13.9 8.5 35v64q0 6.6 0.4 12.3 0.6 5.3 1.9 12.3l2.5 13.8h-27.1l-6.6-31.5v-67.4q-0.1-20.9-9.8-29.7-9.8-9.1-27.1-9.1-12.6 0-23.4 3.8-10.7 3.7-21.4 9.7zm163.6-24.2l-2.5-13.9h27.1l6.6 31.5v130.8h-29v-123.8q0-6.7-0.6-12-0.3-5.7-1.6-12.6zm26.5 35.6v-22.7q10.4-13.2 24.6-21.4 14.2-8.6 29.9-8.6 16.1 0 28.7 7.3 12.9 7.2 20.2 21.7 7.5 14.5 7.5 36.9v99.6h-29v-95.8q0-14.8-4.7-24-4.4-9.4-12.3-13.8-7.9-4.4-18-4.4-12.6 0-24.5 6.6-12 6.6-22.4 18.6zm-252.1 128.7v22.7q-10.4 13.2-24.6 21.4-14.2 8.5-30 8.5-16.1 0-28.7-7.2-12.9-7.3-20.1-21.8-7.6-14.5-7.6-36.9v-99.6h29v95.8q0 14.9 4.7 24 4.4 9.5 12.3 13.9 7.9 4.4 18 4.4 12.6 0 24.6-6.6 12-6.7 22.4-18.6z"/>
</svg>